<?xml version="1.0" encoding="utf-8"?>
<!-- Generator: Adobe Illustrator 25.2.3, SVG Export Plug-In . SVG Version: 6.00 Build 0)  -->
<svg version="1.1" id="Livello_1" xmlns="http://www.w3.org/2000/svg" xmlns:xlink="http://www.w3.org/1999/xlink" x="0px" y="0px"
	 viewBox="0 0 280 100" style="enable-background:new 0 0 280 100;" xml:space="preserve">
<style type="text/css">
	.st0{fill:#FFFFFF;}
	.st1{fill:url(#SVGID_1_);}
</style>
<g>
	<g>
		<path class="st0" d="M130.47,33.58v-7.01h7.07v7.01H130.47z M130.47,77.49V39.92h7.07v37.57L130.47,77.49L130.47,77.49z"/>
		<path class="st0" d="M146.5,69.56v-23.8h-4.33v-5.85h4.33V29.11h6.97v10.81h5.21v5.85h-5.21v23.13c0,1.08,0.26,1.89,0.79,2.43
			s1.29,0.81,2.3,0.81c0.24,0,0.53-0.03,0.86-0.09c0.34-0.06,0.74-0.15,1.21-0.26l0.03,6.12c-0.65,0.21-1.32,0.37-1.97,0.46
			c-0.65,0.09-1.35,0.14-2.07,0.14c-2.72,0-4.76-0.74-6.11-2.23C147.17,74.78,146.5,72.55,146.5,69.56z"/>
		<path class="st0" d="M164.08,33.58v-7.01h7.07v7.01H164.08z M164.08,77.49V39.92h7.07v37.57L164.08,77.49L164.08,77.49z"/>
		<path class="st0" d="M177.49,66.89V50.3c0-3.45,0.97-6.2,2.91-8.25c1.93-2.05,4.48-3.08,7.62-3.08c3.12,0,5.57,0.97,7.34,2.92
			c1.77,1.95,2.66,4.66,2.66,8.14v2.95h-7.19v-3.03c0-1.57-0.24-2.7-0.72-3.38c-0.48-0.68-1.25-1.02-2.3-1.02
			c-1.1,0-1.9,0.34-2.38,1.02c-0.48,0.69-0.72,1.81-0.72,3.38v16.72c0,1.97,0.23,3.34,0.69,4.1c0.46,0.77,1.24,1.14,2.35,1.14
			c1.14,0,1.96-0.32,2.42-0.97c0.46-0.64,0.69-2.07,0.69-4.28v-2.88h7.19v3.1c0,3.85-0.87,6.75-2.62,8.7
			c-1.75,1.95-4.36,2.92-7.83,2.92c-3.1,0-5.55-1.04-7.36-3.11C178.4,73.31,177.49,70.47,177.49,66.89z"/>
		<path class="st0" d="M204.16,77.49V26.56h7.07v27.12l6.41-13.77h7.5l-6.97,12.6l7.43,24.96h-7.07l-4.9-18.59l-2.39,4.41v14.19
			L204.16,77.49L204.16,77.49z"/>
		<path class="st0" d="M228.77,66.89V50.03c0-3.26,0.98-5.92,2.95-7.98c1.97-2.05,4.52-3.08,7.65-3.08c3.19,0,5.64,0.95,7.36,2.85
			c1.72,1.9,2.58,4.64,2.58,8.21v9.58H236v7.07c0,1.97,0.23,3.34,0.69,4.1c0.46,0.77,1.24,1.14,2.34,1.14
			c1.14,0,1.96-0.32,2.42-0.97c0.46-0.65,0.69-2.07,0.69-4.28v-2.61h7.19v2.82c0,3.85-0.87,6.75-2.62,8.7
			c-1.75,1.95-4.36,2.92-7.84,2.92c-3.12,0-5.59-1.03-7.37-3.1C229.68,73.35,228.77,70.5,228.77,66.89z M236,53.75h6.12v-3.8
			c0-1.57-0.24-2.7-0.72-3.38c-0.48-0.68-1.25-1.02-2.3-1.02c-1.1,0-1.9,0.34-2.38,1.02c-0.48,0.69-0.72,1.81-0.72,3.38V53.75z"/>
		<path class="st0" d="M257.35,69.56v-23.8h-4.33v-5.85h4.33V29.11h6.97v10.81h5.21v5.85h-5.21v23.13c0,1.08,0.26,1.89,0.79,2.43
			s1.29,0.81,2.3,0.81c0.24,0,0.53-0.03,0.86-0.09c0.34-0.06,0.74-0.15,1.21-0.26l0.03,6.12c-0.65,0.21-1.32,0.37-1.97,0.46
			c-0.65,0.09-1.35,0.14-2.07,0.14c-2.72,0-4.76-0.74-6.11-2.23C258.02,74.78,257.35,72.55,257.35,69.56z"/>
	</g>
	<g>
		
			<linearGradient id="SVGID_1_" gradientUnits="userSpaceOnUse" x1="290.837" y1="-100.0369" x2="397.4499" y2="-100.0369" gradientTransform="matrix(1 0 0 -1 -281 -47.5)">
			<stop  offset="0" style="stop-color:#F7F727"/>
			<stop  offset="0.0595" style="stop-color:#F8E91A"/>
			<stop  offset="0.1303" style="stop-color:#F9D514"/>
			<stop  offset="0.2032" style="stop-color:#FBCA12"/>
			<stop  offset="0.2809" style="stop-color:#F9C610"/>
			<stop  offset="0.5241" style="stop-color:#F57B1F"/>
			<stop  offset="0.8876" style="stop-color:#F5441A"/>
			<stop  offset="1" style="stop-color:#F41717"/>
		</linearGradient>
		<path class="st1" d="M109.34,17.44h-65.3c-0.98,0-1.77,0.8-1.77,1.77v5.48c0,0.95-0.71,1.77-1.66,1.83
			c-1.03,0.07-1.9-0.76-1.9-1.77v-5.54c0-0.98-0.8-1.77-1.77-1.77H16.95c-3.93,0-7.11,3.18-7.11,7.11v9.79
			c0,2.63,1.42,5.03,3.71,6.24c9.56,5.09,9.56,18.82,0,23.92c-2.29,1.22-3.71,3.62-3.71,6.24v9.79c0,3.93,3.18,7.11,7.11,7.11h19.99
			c0.98,0,1.77-0.8,1.77-1.77v-5.48c0-0.95,0.71-1.77,1.66-1.83c1.03-0.07,1.9,0.76,1.9,1.77v5.54c0,0.98,0.8,1.77,1.77,1.77h65.3
			c3.93,0,7.11-3.18,7.11-7.11V24.55C116.45,20.62,113.27,17.44,109.34,17.44L109.34,17.44z M42.25,66.89c0,0.98-0.8,1.77-1.77,1.77
			s-1.77-0.8-1.77-1.77v-6.96c0-0.98,0.8-1.77,1.77-1.77s1.77,0.8,1.77,1.77V66.89z M42.25,45.14c0,0.98-0.8,1.77-1.77,1.77
			s-1.77-0.8-1.77-1.77v-6.96c0-0.98,0.8-1.77,1.77-1.77s1.77,0.8,1.77,1.77V45.14z"/>
	</g>
	<g>
		<g>
			<g>
				<path class="st0" d="M68.66,45.57c-2.94,7.42,2,11.3,6.98,15.45s6.67,5.3,7.68,12.36c0.47,3.31,1.17,6.06,1.76,8.05
					c0.3,1.63,0.9,3.14,1.83,4.48c5.94,8.57,12.51,3.25,20.62-3.32c8.1-6.57,14.66-11.89,8.72-20.45c-0.46-0.65-0.97-1.24-1.55-1.76
					l0,0c-2.82-3.17-13.98-5.28-14.3-15.02c-0.33-10.18-7.49-9.05-7.49-9.05c2.09,3.02,4.67,12.12-0.72,12.56
					c-3.79,0.31-6.57-2.53-7.9-4.25c-0.19-0.25-0.35-0.47-0.48-0.66c-0.25-0.37-0.38-0.6-0.38-0.6l-0.03,0.02L71.06,26.46
					c-1.73-2.42-0.25-4.66-0.25-4.66C65.7,19.7,59.56,7.71,59.56,7.71s0.27-0.82-2.03-0.49c-2.3,0.33,0.39,2.62,0.23,3.9
					c-0.16,1.29-2.21,1.11-2.21,1.11l7.97,16c1.58-0.49,2.59-0.31,3.21-0.01L81,50.25c0.35,3.25-1.42,4.54-5.05,3.41
					C71.17,52.2,68.66,45.57,68.66,45.57z"/>
			</g>
		</g>
		<g>
		</g>
		<g>
		</g>
		<g>
		</g>
		<g>
		</g>
		<g>
		</g>
		<g>
		</g>
		<g>
		</g>
		<g>
		</g>
		<g>
		</g>
		<g>
		</g>
		<g>
		</g>
		<g>
		</g>
		<g>
		</g>
		<g>
		</g>
		<g>
		</g>
	</g>
</g>
</svg>
