<?xml version="1.0" encoding="utf-8"?>
<!-- Generator: Adobe Illustrator 25.2.3, SVG Export Plug-In . SVG Version: 6.00 Build 0)  -->
<svg version="1.1" id="Livello_1" xmlns="http://www.w3.org/2000/svg" xmlns:xlink="http://www.w3.org/1999/xlink" x="0px" y="0px"
	 viewBox="0 0 595.28 841.89" style="enable-background:new 0 0 595.28 841.89;" xml:space="preserve">
<style type="text/css">
	.st0{fill:#FFFFFF;}
	.st1{fill:url(#SVGID_1_);}
</style>
<g>
	<path class="st0" d="M288.57,209.63v-6.12h6.18v6.12H288.57z M288.57,247.99v-32.82h6.18v32.82H288.57z"/>
	<path class="st0" d="M302.57,241.06v-20.79h-3.78v-5.11h3.78v-9.44h6.09v9.44h4.55v5.11h-4.55v20.21c0,0.94,0.23,1.65,0.69,2.12
		c0.46,0.47,1.13,0.71,2.01,0.71c0.21,0,0.46-0.03,0.75-0.08c0.3-0.05,0.65-0.13,1.06-0.23l0.03,5.35c-0.57,0.18-1.15,0.32-1.72,0.4
		c-0.57,0.08-1.18,0.12-1.81,0.12c-2.38,0-4.16-0.65-5.34-1.95C303.16,245.62,302.57,243.67,302.57,241.06z"/>
	<path class="st0" d="M317.93,209.63v-6.12h6.18v6.12H317.93z M317.93,247.99v-32.82h6.18v32.82H317.93z"/>
	<path class="st0" d="M329.65,238.73v-14.49c0-3.01,0.85-5.42,2.54-7.21c1.69-1.79,3.91-2.69,6.66-2.69c2.73,0,4.87,0.85,6.41,2.55
		c1.55,1.7,2.32,4.07,2.32,7.11v2.58h-6.28v-2.65c0-1.37-0.21-2.36-0.63-2.95c-0.42-0.59-1.09-0.89-2.01-0.89
		c-0.96,0-1.66,0.3-2.08,0.89c-0.42,0.6-0.63,1.58-0.63,2.95v14.61c0,1.72,0.2,2.92,0.6,3.58c0.4,0.67,1.08,1,2.05,1
		c1,0,1.71-0.28,2.11-0.85c0.4-0.56,0.6-1.81,0.6-3.74v-2.52h6.28v2.71c0,3.36-0.76,5.9-2.29,7.6c-1.53,1.7-3.81,2.55-6.84,2.55
		c-2.71,0-4.85-0.91-6.43-2.72C330.44,244.34,329.65,241.86,329.65,238.73z"/>
	<path class="st0" d="M352.95,247.99V203.5h6.18v23.69l5.6-12.03h6.55l-6.09,11.01l6.49,21.81h-6.18l-4.28-16.24l-2.09,3.85v12.4
		H352.95z"/>
	<path class="st0" d="M374.45,238.73v-14.73c0-2.85,0.86-5.17,2.58-6.97c1.72-1.79,3.95-2.69,6.68-2.69c2.79,0,4.93,0.83,6.43,2.49
		c1.5,1.66,2.25,4.05,2.25,7.17v8.37h-11.63v6.18c0,1.72,0.2,2.92,0.6,3.58c0.4,0.67,1.08,1,2.04,1c1,0,1.71-0.28,2.11-0.85
		s0.6-1.81,0.6-3.74v-2.28h6.28v2.46c0,3.36-0.76,5.9-2.29,7.6c-1.53,1.7-3.81,2.55-6.85,2.55c-2.73,0-4.88-0.9-6.44-2.71
		C375.24,244.37,374.45,241.88,374.45,238.73z M380.76,227.25h5.35v-3.32c0-1.37-0.21-2.36-0.63-2.95
		c-0.42-0.59-1.09-0.89-2.01-0.89c-0.96,0-1.66,0.3-2.08,0.89c-0.42,0.6-0.63,1.58-0.63,2.95V227.25z"/>
	<path class="st0" d="M399.41,241.06v-20.79h-3.78v-5.11h3.78v-9.44h6.09v9.44h4.55v5.11h-4.55v20.21c0,0.94,0.23,1.65,0.69,2.12
		c0.46,0.47,1.13,0.71,2.01,0.71c0.21,0,0.46-0.03,0.75-0.08c0.3-0.05,0.65-0.13,1.06-0.23l0.03,5.35c-0.57,0.18-1.15,0.32-1.72,0.4
		c-0.57,0.08-1.18,0.12-1.81,0.12c-2.38,0-4.16-0.65-5.34-1.95C400,245.62,399.41,243.67,399.41,241.06z"/>
</g>
<g>
	<linearGradient id="SVGID_1_" gradientUnits="userSpaceOnUse" x1="183.1707" y1="226.1907" x2="276.3167" y2="226.1907">
		<stop  offset="0" style="stop-color:#FFFF25"/>
		<stop  offset="0.0595" style="stop-color:#FEE916"/>
		<stop  offset="0.1303" style="stop-color:#FED50E"/>
		<stop  offset="0.2032" style="stop-color:#FECA06"/>
		<stop  offset="0.2809" style="stop-color:#FEC601"/>
		<stop  offset="0.5241" style="stop-color:#FB7B1E"/>
		<stop  offset="0.8876" style="stop-color:#F9441B"/>
		<stop  offset="1" style="stop-color:#F71818"/>
	</linearGradient>
	<path class="st1" d="M270.11,195.53h-57.05c-0.86,0-1.55,0.7-1.55,1.55v4.79c0,0.83-0.62,1.55-1.45,1.6
		c-0.9,0.06-1.66-0.66-1.66-1.55v-4.84c0-0.86-0.7-1.55-1.55-1.55h-17.46c-3.43,0-6.21,2.78-6.21,6.21v8.55
		c0,2.3,1.24,4.39,3.24,5.45c8.35,4.45,8.35,16.44,0,20.9c-2,1.07-3.24,3.16-3.24,5.45v8.55c0,3.43,2.78,6.21,6.21,6.21h17.46
		c0.86,0,1.55-0.7,1.55-1.55v-4.79c0-0.83,0.62-1.55,1.45-1.6c0.9-0.06,1.66,0.66,1.66,1.55v4.84c0,0.86,0.7,1.55,1.55,1.55h57.05
		c3.43,0,6.21-2.78,6.21-6.21v-48.9C276.32,198.31,273.54,195.53,270.11,195.53L270.11,195.53z M211.5,238.73
		c0,0.86-0.7,1.55-1.55,1.55s-1.55-0.7-1.55-1.55v-6.08c0-0.86,0.7-1.55,1.55-1.55s1.55,0.7,1.55,1.55V238.73z M211.5,219.73
		c0,0.86-0.7,1.55-1.55,1.55s-1.55-0.7-1.55-1.55v-6.08c0-0.86,0.7-1.55,1.55-1.55s1.55,0.7,1.55,1.55V219.73z"/>
</g>
<g>
	<g>
		<g>
			<path class="st0" d="M234.57,220.1c-2.57,6.48,1.75,9.87,6.1,13.5c4.35,3.63,5.83,4.63,6.71,10.8c0.41,2.89,1.02,5.29,1.54,7.03
				c0.26,1.42,0.79,2.74,1.6,3.91c5.19,7.49,10.93,2.84,18.01-2.9c7.08-5.74,12.81-10.39,7.62-17.87c-0.4-0.57-0.85-1.08-1.35-1.54
				l0,0c-2.46-2.77-12.21-4.61-12.49-13.12c-0.29-8.89-6.54-7.91-6.54-7.91c1.83,2.64,4.08,10.59-0.63,10.97
				c-3.31,0.27-5.74-2.21-6.9-3.71c-0.17-0.22-0.31-0.41-0.42-0.58c-0.22-0.32-0.33-0.52-0.33-0.52l-0.03,0.02l-10.79-14.77
				c-1.51-2.11-0.22-4.07-0.22-4.07c-4.47-1.84-9.83-12.31-9.83-12.31s0.24-0.72-1.77-0.43c-2.01,0.29,0.34,2.29,0.2,3.41
				c-0.14,1.13-1.93,0.97-1.93,0.97l6.96,13.98c1.38-0.43,2.26-0.27,2.8-0.01l12.47,19.24c0.31,2.84-1.24,3.97-4.41,2.98
				C236.76,225.9,234.57,220.1,234.57,220.1z"/>
		</g>
	</g>
	<g>
	</g>
	<g>
	</g>
	<g>
	</g>
	<g>
	</g>
	<g>
	</g>
	<g>
	</g>
	<g>
	</g>
	<g>
	</g>
	<g>
	</g>
	<g>
	</g>
	<g>
	</g>
	<g>
	</g>
	<g>
	</g>
	<g>
	</g>
	<g>
	</g>
</g>
</svg>
